<mxfile host="app.diagrams.net" modified="2021-09-29T03:49:09.140Z" agent="5.0 (Windows NT 10.0; Win64; x64) AppleWebKit/537.36 (KHTML, like Gecko) Chrome/92.0.4515.159 YaBrowser/21.8.3.614 Yowser/2.5 Safari/537.36" etag="1nBZ5TwNSVkH4C5rBeSy" version="15.3.5" type="github">
  <diagram id="yxd2h5v2QWg0KXxMQdkO" name="Page-1">
    <mxGraphModel dx="1422" dy="765" grid="1" gridSize="10" guides="1" tooltips="1" connect="1" arrows="1" fold="1" page="1" pageScale="1" pageWidth="827" pageHeight="1169" math="0" shadow="0">
      <root>
        <mxCell id="0" />
        <mxCell id="1" parent="0" />
        <mxCell id="6VRx5CO1xJcbrcZvfMLV-1" value="Пользователь&lt;br&gt;" style="shape=umlActor;verticalLabelPosition=bottom;verticalAlign=top;html=1;outlineConnect=0;hachureGap=4;pointerEvents=0;" vertex="1" parent="1">
          <mxGeometry x="60" y="100" width="30" height="60" as="geometry" />
        </mxCell>
        <mxCell id="6VRx5CO1xJcbrcZvfMLV-2" value="" style="line;strokeWidth=1;direction=south;html=1;perimeter=backbonePerimeter;points=[];outlineConnect=0;hachureGap=4;pointerEvents=0;" vertex="1" parent="1">
          <mxGeometry x="70" y="190" width="10" height="450" as="geometry" />
        </mxCell>
        <mxCell id="6VRx5CO1xJcbrcZvfMLV-3" value="" style="verticalLabelPosition=bottom;verticalAlign=top;html=1;shape=mxgraph.basic.rect;fillColor2=none;strokeWidth=1;size=20;indent=5;hachureGap=4;pointerEvents=0;" vertex="1" parent="1">
          <mxGeometry x="70" y="200" width="10" height="60" as="geometry" />
        </mxCell>
        <mxCell id="6VRx5CO1xJcbrcZvfMLV-4" value="" style="verticalLabelPosition=bottom;verticalAlign=top;html=1;shape=mxgraph.basic.rect;fillColor2=none;strokeWidth=1;size=20;indent=5;hachureGap=4;pointerEvents=0;" vertex="1" parent="1">
          <mxGeometry x="70" y="320" width="10" as="geometry" />
        </mxCell>
        <mxCell id="6VRx5CO1xJcbrcZvfMLV-8" value="" style="verticalLabelPosition=bottom;verticalAlign=top;html=1;shape=mxgraph.basic.rect;fillColor2=none;strokeWidth=1;size=20;indent=5;hachureGap=4;pointerEvents=0;" vertex="1" parent="1">
          <mxGeometry x="409" y="350" width="10" height="50" as="geometry" />
        </mxCell>
        <mxCell id="6VRx5CO1xJcbrcZvfMLV-12" value="" style="line;strokeWidth=1;direction=south;html=1;perimeter=backbonePerimeter;points=[];outlineConnect=0;hachureGap=4;pointerEvents=0;" vertex="1" parent="1">
          <mxGeometry x="290" y="170" width="10" height="470" as="geometry" />
        </mxCell>
        <mxCell id="6VRx5CO1xJcbrcZvfMLV-13" value="" style="line;strokeWidth=1;direction=south;html=1;perimeter=backbonePerimeter;points=[];outlineConnect=0;hachureGap=4;pointerEvents=0;" vertex="1" parent="1">
          <mxGeometry x="519" y="470" width="10" height="170" as="geometry" />
        </mxCell>
        <mxCell id="6VRx5CO1xJcbrcZvfMLV-15" value="" style="verticalLabelPosition=bottom;verticalAlign=top;html=1;shape=mxgraph.basic.rect;fillColor2=none;strokeWidth=1;size=20;indent=5;hachureGap=4;pointerEvents=0;" vertex="1" parent="1">
          <mxGeometry x="290" y="260" width="10" height="60" as="geometry" />
        </mxCell>
        <mxCell id="6VRx5CO1xJcbrcZvfMLV-16" value="Форма регистрации заявки" style="html=1;hachureGap=4;pointerEvents=0;strokeWidth=1;align=center;whiteSpace=wrap;" vertex="1" parent="1">
          <mxGeometry x="240" y="120" width="110" height="50" as="geometry" />
        </mxCell>
        <mxCell id="6VRx5CO1xJcbrcZvfMLV-17" value="Список заявок" style="html=1;hachureGap=4;pointerEvents=0;strokeWidth=1;" vertex="1" parent="1">
          <mxGeometry x="469" y="420" width="110" height="50" as="geometry" />
        </mxCell>
        <mxCell id="6VRx5CO1xJcbrcZvfMLV-20" value="Регистрация заявки" style="html=1;verticalAlign=bottom;labelBackgroundColor=none;endArrow=block;endFill=1;startSize=14;endSize=14;sourcePerimeterSpacing=8;targetPerimeterSpacing=8;" edge="1" parent="1" target="6VRx5CO1xJcbrcZvfMLV-12">
          <mxGeometry width="160" relative="1" as="geometry">
            <mxPoint x="70" y="260" as="sourcePoint" />
            <mxPoint x="230" y="260" as="targetPoint" />
            <Array as="points">
              <mxPoint x="270" y="260" />
            </Array>
          </mxGeometry>
        </mxCell>
        <mxCell id="6VRx5CO1xJcbrcZvfMLV-21" value="Уведомление" style="html=1;verticalAlign=bottom;labelBackgroundColor=none;endArrow=open;endFill=0;dashed=1;startSize=14;endSize=14;sourcePerimeterSpacing=8;targetPerimeterSpacing=8;exitX=-0.1;exitY=1;exitDx=0;exitDy=0;exitPerimeter=0;" edge="1" parent="1" source="6VRx5CO1xJcbrcZvfMLV-8" target="6VRx5CO1xJcbrcZvfMLV-2">
          <mxGeometry width="160" relative="1" as="geometry">
            <mxPoint x="280" y="400" as="sourcePoint" />
            <mxPoint x="80" y="400" as="targetPoint" />
            <Array as="points">
              <mxPoint x="170" y="400" />
              <mxPoint x="180" y="400" />
            </Array>
          </mxGeometry>
        </mxCell>
        <mxCell id="6VRx5CO1xJcbrcZvfMLV-22" value="new" style="html=1;verticalAlign=bottom;labelBackgroundColor=none;endArrow=block;endFill=1;startSize=14;endSize=14;sourcePerimeterSpacing=8;targetPerimeterSpacing=8;exitX=0.5;exitY=1;exitDx=0;exitDy=0;exitPerimeter=0;" edge="1" parent="1" source="6VRx5CO1xJcbrcZvfMLV-30">
          <mxGeometry x="0.8528" width="160" relative="1" as="geometry">
            <mxPoint x="109" y="450" as="sourcePoint" />
            <mxPoint x="469" y="450" as="targetPoint" />
            <Array as="points">
              <mxPoint x="239" y="450" />
            </Array>
            <mxPoint as="offset" />
          </mxGeometry>
        </mxCell>
        <mxCell id="6VRx5CO1xJcbrcZvfMLV-27" value="заявка" style="html=1;hachureGap=4;pointerEvents=0;strokeWidth=1;whiteSpace=wrap;" vertex="1" parent="1">
          <mxGeometry x="359" y="280" width="110" height="50" as="geometry" />
        </mxCell>
        <mxCell id="6VRx5CO1xJcbrcZvfMLV-28" value="new" style="html=1;verticalAlign=bottom;labelBackgroundColor=none;endArrow=block;endFill=1;startSize=14;endSize=14;sourcePerimeterSpacing=8;targetPerimeterSpacing=8;" edge="1" parent="1">
          <mxGeometry width="160" relative="1" as="geometry">
            <mxPoint x="289" y="320" as="sourcePoint" />
            <mxPoint x="359" y="320" as="targetPoint" />
            <Array as="points">
              <mxPoint x="334.5" y="320" />
            </Array>
          </mxGeometry>
        </mxCell>
        <mxCell id="6VRx5CO1xJcbrcZvfMLV-29" value="" style="line;strokeWidth=1;direction=south;html=1;perimeter=backbonePerimeter;points=[];outlineConnect=0;hachureGap=4;pointerEvents=0;" vertex="1" parent="1">
          <mxGeometry x="409" y="330" width="10" height="310" as="geometry" />
        </mxCell>
        <mxCell id="6VRx5CO1xJcbrcZvfMLV-30" value="" style="verticalLabelPosition=bottom;verticalAlign=top;html=1;shape=mxgraph.basic.rect;fillColor2=none;strokeWidth=1;size=20;indent=5;hachureGap=4;pointerEvents=0;" vertex="1" parent="1">
          <mxGeometry x="70" y="400" width="10" height="50" as="geometry" />
        </mxCell>
        <mxCell id="6VRx5CO1xJcbrcZvfMLV-33" value="" style="html=1;verticalAlign=bottom;labelBackgroundColor=none;endArrow=block;endFill=1;startSize=14;endSize=14;sourcePerimeterSpacing=8;targetPerimeterSpacing=8;" edge="1" parent="1">
          <mxGeometry x="0.8528" width="160" relative="1" as="geometry">
            <mxPoint x="80" y="450" as="sourcePoint" />
            <mxPoint x="414" y="450" as="targetPoint" />
            <Array as="points">
              <mxPoint x="184" y="450" />
            </Array>
            <mxPoint as="offset" />
          </mxGeometry>
        </mxCell>
        <mxCell id="6VRx5CO1xJcbrcZvfMLV-34" value="" style="verticalLabelPosition=bottom;verticalAlign=top;html=1;shape=mxgraph.basic.rect;fillColor2=none;strokeWidth=1;size=20;indent=5;hachureGap=4;pointerEvents=0;" vertex="1" parent="1">
          <mxGeometry x="519" y="490" width="10" height="20" as="geometry" />
        </mxCell>
        <mxCell id="6VRx5CO1xJcbrcZvfMLV-35" value="Отображение" style="html=1;verticalAlign=bottom;labelBackgroundColor=none;endArrow=open;endFill=0;dashed=1;startSize=14;endSize=14;sourcePerimeterSpacing=8;targetPerimeterSpacing=8;exitX=-0.1;exitY=1;exitDx=0;exitDy=0;exitPerimeter=0;" edge="1" parent="1" target="6VRx5CO1xJcbrcZvfMLV-2">
          <mxGeometry width="160" relative="1" as="geometry">
            <mxPoint x="519" y="510" as="sourcePoint" />
            <mxPoint x="160" y="510" as="targetPoint" />
            <Array as="points">
              <mxPoint x="281" y="510" />
              <mxPoint x="291" y="510" />
            </Array>
          </mxGeometry>
        </mxCell>
      </root>
    </mxGraphModel>
  </diagram>
</mxfile>
